<?xml version="1.0" encoding="utf-8"?><svg viewBox="0 0 512 512" xmlns="http://www.w3.org/2000/svg" xmlns:xlink="http://www.w3.org/1999/xlink"><style>:root>svg{display:none}:root>svg:target{display:block}</style><svg fill="none" viewBox="0 0 35 35" id="Inst" xmlns="http://www.w3.org/2000/svg"><path fill-rule="evenodd" clip-rule="evenodd" d="M17.5 0C7.835 0 0 7.835 0 17.5S7.835 35 17.5 35 35 27.165 35 17.5 27.165 0 17.5 0zm-3.848 8.223c.996-.045 1.314-.056 3.849-.056h-.003c2.535 0 2.852.01 3.848.056.994.045 1.672.203 2.267.434a4.56 4.56 0 011.653 1.076c.52.519.838 1.04 1.077 1.653.23.594.387 1.272.434 2.266.045.995.056 1.313.056 3.848s-.011 2.852-.056 3.848c-.047.993-.204 1.671-.434 2.265a4.582 4.582 0 01-1.077 1.653 4.566 4.566 0 01-1.652 1.078c-.594.23-1.273.388-2.267.433-.995.045-1.312.056-3.847.056s-2.853-.01-3.848-.056c-.994-.045-1.672-.203-2.266-.434a4.57 4.57 0 01-1.653-1.077 4.573 4.573 0 01-1.076-1.653c-.231-.594-.388-1.272-.434-2.265-.045-.996-.056-1.313-.056-3.848s.011-2.853.056-3.849c.045-.993.202-1.671.433-2.265a4.582 4.582 0 011.078-1.653 4.57 4.57 0 011.653-1.076c.593-.231 1.272-.389 2.265-.434z" fill="#fff"/><path fill-rule="evenodd" clip-rule="evenodd" d="M16.664 9.849h.837c2.492 0 2.787.008 3.771.053.91.042 1.404.194 1.733.322.436.169.746.371 1.073.698.327.326.529.637.698 1.073.128.329.28.823.322 1.732.044.984.054 1.28.054 3.77 0 2.492-.01 2.787-.054 3.771-.042.91-.194 1.404-.322 1.733-.169.435-.371.745-.698 1.072a2.886 2.886 0 01-1.073.698c-.328.128-.823.28-1.733.322-.983.044-1.279.054-3.771.054s-2.788-.01-3.772-.054c-.91-.043-1.403-.195-1.733-.322a2.89 2.89 0 01-1.073-.698A2.893 2.893 0 0110.225 23c-.128-.329-.28-.823-.322-1.733-.045-.983-.054-1.28-.054-3.771 0-2.493.01-2.787.054-3.77.042-.91.194-1.405.322-1.734a2.89 2.89 0 01.698-1.073 2.897 2.897 0 011.073-.699c.33-.128.823-.28 1.733-.321.862-.04 1.195-.05 2.935-.053v.003zm5.819 1.55a1.12 1.12 0 100 2.24 1.12 1.12 0 000-2.241zM12.708 17.5a4.793 4.793 0 119.585 0 4.793 4.793 0 01-9.585 0z" fill="#fff"/><path fill-rule="evenodd" clip-rule="evenodd" d="M17.501 14.389a3.111 3.111 0 110 6.222 3.111 3.111 0 010-6.222z" fill="#fff"/></svg><svg fill="none" viewBox="0 0 90 30" id="app" xmlns="http://www.w3.org/2000/svg"><path d="M82.671 0H6.335c-.23.002-.457.006-.69.01a9.993 9.993 0 00-1.504.132c-.496.083-.977.24-1.427.466a4.874 4.874 0 00-1.215.878c-.358.353-.656.76-.884 1.207a4.93 4.93 0 00-.47 1.418c-.083.492-.128.99-.134 1.49-.007.229-.007.458-.011.686V23.5c.004.231.004.455.011.687.006.5.051.998.135 1.49.082.494.24.972.469 1.418.227.446.526.852.884 1.203a4.72 4.72 0 001.215.877c.45.227.93.385 1.427.47.498.081 1 .125 1.505.132.232.005.46.008.69.008l.821.001h75.514l.814-.001c.229 0 .463-.003.692-.008a9.93 9.93 0 001.501-.132 5.129 5.129 0 001.433-.47c.45-.226.859-.522 1.214-.877.357-.352.656-.758.887-1.203.226-.446.383-.924.464-1.418.084-.492.13-.99.14-1.49.003-.232.003-.456.003-.687.005-.27.005-.54.005-.814V7.1c0-.272 0-.543-.005-.813 0-.228 0-.457-.003-.685-.01-.5-.056-.998-.14-1.491a4.906 4.906 0 00-.464-1.418A4.845 4.845 0 0087.11.61a5.155 5.155 0 00-1.433-.467 9.8 9.8 0 00-1.5-.131c-.23-.004-.464-.008-.693-.01L82.671 0z" fill="#A6A6A6"/><path d="M6.339 29.136a30.6 30.6 0 01-.679-.008 9.558 9.558 0 01-1.403-.122 4.414 4.414 0 01-1.243-.408 4.05 4.05 0 01-1.05-.757 3.967 3.967 0 01-.765-1.04 4.266 4.266 0 01-.409-1.234 9.192 9.192 0 01-.125-1.396c-.004-.157-.01-.68-.01-.68V6.288s.006-.515.01-.666c.006-.467.048-.933.125-1.394.071-.43.209-.848.408-1.238.195-.385.453-.737.762-1.04a4.143 4.143 0 011.052-.762c.391-.196.81-.333 1.241-.405A9.516 9.516 0 015.662.66L6.34.65h77.142l.686.01a9.45 9.45 0 011.395.12c.436.075.859.212 1.254.409A4.18 4.18 0 0188.63 2.99c.195.387.33.8.402 1.228.077.465.121.934.13 1.405.002.21.002.438.002.663.006.28.006.545.006.813v15.586c0 .27 0 .534-.006.8 0 .242 0 .464-.003.693a9.27 9.27 0 01-.128 1.38c-.07.433-.207.852-.405 1.243-.198.382-.455.73-.763 1.032a4.051 4.051 0 01-1.05.762 4.454 4.454 0 01-1.252.41 9.556 9.556 0 01-1.403.12c-.22.006-.45.009-.674.009H6.339z" fill="#000"/><path d="M18.593 15.117a3.68 3.68 0 011.77-3.092 3.814 3.814 0 00-2.997-1.607c-1.26-.13-2.482.749-3.125.749-.654 0-1.643-.736-2.708-.714a3.996 3.996 0 00-3.358 2.03c-1.451 2.495-.369 6.16 1.022 8.175.696.987 1.509 2.09 2.573 2.05 1.041-.042 1.43-.658 2.687-.658 1.245 0 1.61.659 2.695.634 1.118-.018 1.821-.992 2.493-1.988.5-.703.884-1.48 1.14-2.303a3.563 3.563 0 01-2.192-3.276zm-2.05-6.024c.609-.726.91-1.658.836-2.6-.93.097-1.79.539-2.407 1.236a3.437 3.437 0 00-.859 2.503c.943.01 1.839-.41 2.43-1.14zM31.755 20.21h-3.553l-.853 2.499h-1.506l3.366-9.247h1.564l3.365 9.247h-1.53l-.853-2.5zm-3.185-1.154h2.816L29.998 15h-.039l-1.39 4.056h.001zm12.836.282c0 2.095-1.13 3.442-2.836 3.442a2.31 2.31 0 01-2.138-1.18H36.4v3.34h-1.395v-8.973h1.35v1.12h.026a2.416 2.416 0 012.163-1.192c1.725 0 2.862 1.353 2.862 3.442zm-1.434 0c0-1.365-.71-2.262-1.796-2.262-1.065 0-1.782.916-1.782 2.262 0 1.359.717 2.269 1.782 2.269 1.085 0 1.796-.891 1.796-2.27zm8.914 0c0 2.095-1.13 3.442-2.836 3.442a2.31 2.31 0 01-2.138-1.18h-.032v3.34h-1.395v-8.973h1.35v1.12h.025a2.417 2.417 0 012.164-1.192c1.725 0 2.862 1.353 2.862 3.442zm-1.434 0c0-1.365-.71-2.262-1.796-2.262-1.065 0-1.782.916-1.782 2.262 0 1.359.717 2.269 1.782 2.269 1.085 0 1.796-.891 1.796-2.27zm6.378.794c.103.917 1.001 1.52 2.228 1.52 1.176 0 2.022-.603 2.022-1.43 0-.717-.51-1.147-1.718-1.442l-1.208-.288c-1.712-.41-2.506-1.205-2.506-2.493 0-1.596 1.401-2.692 3.391-2.692 1.97 0 3.32 1.096 3.366 2.692h-1.408c-.085-.923-.854-1.48-1.977-1.48-1.124 0-1.893.564-1.893 1.384 0 .654.49 1.038 1.692 1.333l1.027.25c1.913.449 2.708 1.21 2.708 2.563 0 1.73-1.39 2.814-3.599 2.814-2.067 0-3.463-1.058-3.553-2.73h1.428v-.001zm8.734-5.761v1.596h1.293v1.096h-1.294v3.717c0 .577.259.846.827.846.153-.003.307-.013.459-.032v1.09a3.95 3.95 0 01-.775.064c-1.376 0-1.912-.513-1.912-1.82v-3.866h-.989v-1.095h.989V14.37h1.402zm2.041 4.967c0-2.121 1.26-3.454 3.223-3.454 1.97 0 3.224 1.333 3.224 3.454 0 2.127-1.247 3.455-3.224 3.455-1.976 0-3.223-1.328-3.223-3.455zm5.026 0c0-1.455-.672-2.314-1.803-2.314-1.13 0-1.802.866-1.802 2.314 0 1.46.672 2.314 1.802 2.314s1.803-.853 1.803-2.314zm2.572-3.371h1.33v1.147h.032a1.62 1.62 0 011.635-1.218c.16 0 .32.017.478.052v1.294a1.957 1.957 0 00-.627-.083 1.409 1.409 0 00-1.087.444c-.28.298-.413.702-.367 1.107v3.999h-1.394v-6.742zm9.906 4.762c-.187 1.224-1.389 2.064-2.926 2.064-1.977 0-3.204-1.314-3.204-3.423 0-2.114 1.234-3.486 3.145-3.486 1.88 0 3.063 1.28 3.063 3.326v.474h-4.8v.083c-.045.502.13 1 .48 1.365s.84.564 1.348.545a1.54 1.54 0 001.57-.948h1.324zm-4.715-2.012h3.397a1.61 1.61 0 00-.456-1.217 1.644 1.644 0 00-1.21-.495 1.73 1.73 0 00-1.225.498 1.698 1.698 0 00-.506 1.214zM27.577 8.38h.599a.748.748 0 00.844-.709c0-.41-.31-.674-.838-.674a.802.802 0 00-.904.696h-.656c.022-.386.205-.746.505-.991.3-.247.69-.358 1.077-.31.881 0 1.502.49 1.502 1.196.005.487-.334.91-.813 1.016v.053c.573.025 1.018.505.996 1.074a1.482 1.482 0 01-.557 1.01c-.314.248-.717.36-1.116.31-.4.055-.805-.054-1.122-.302a1.469 1.469 0 01-.56-1.012h.668c.04.426.433.7 1.014.7.58 0 .96-.308.96-.742 0-.44-.357-.712-.981-.712h-.618V8.38zm3.071 1.617c0-.604.453-.952 1.257-1.002l.915-.052v-.29c0-.354-.235-.554-.692-.554-.372 0-.63.136-.704.373h-.646c.068-.576.615-.945 1.382-.945.847 0 1.325.418 1.325 1.127v2.29h-.643v-.47h-.052a1.14 1.14 0 01-1.016.526 1.027 1.027 0 01-.788-.254 1.01 1.01 0 01-.338-.75zm2.172-.287v-.28l-.825.052c-.466.03-.677.188-.677.483 0 .302.264.478.627.478a.798.798 0 00.875-.733zm2.435-1.562v2.797h-.667V7.59h2.226v.557h-1.559zm5.602 1.119c0 1.065-.543 1.733-1.397 1.733a1.103 1.103 0 01-1.04-.563h-.053v1.623H37.7V7.59h.642v.556h.05c.21-.385.62-.62 1.062-.61.86 0 1.403.665 1.403 1.73zm-.686 0c0-.71-.338-1.137-.904-1.137-.561 0-.912.437-.912 1.14 0 .698.35 1.136.91 1.136.568 0 .906-.428.906-1.14zm1.574 2.879v-.57c.072.009.145.013.218.012a.576.576 0 00.611-.468l.05-.163-1.223-3.366h.726l.847 2.664h.053l.845-2.664h.707l-1.26 3.492c-.289.816-.608 1.078-1.297 1.078-.056 0-.215-.006-.277-.015zm3.354-2.153h.664c.065.296.344.45.735.45.444 0 .717-.194.717-.496 0-.323-.245-.477-.717-.477h-.506v-.515h.497c.404 0 .609-.153.609-.434 0-.246-.199-.434-.609-.434-.373 0-.645.157-.689.422h-.643c.1-.633.693-1.07 1.332-.982.804 0 1.263.36 1.263.927a.69.69 0 01-.533.686v.052c.381.05.665.374.661.755 0 .637-.547 1.06-1.382 1.06-.738 0-1.338-.336-1.4-1.014h.001zm3.742.952V7.59h.661v2.307h.053l1.557-2.307h.662v3.354h-.662v-2.32h-.049l-1.561 2.32h-.661zm6.575-2.797h-1.064v2.797h-.668V8.148h-1.065V7.59h2.797v.557zm3.593 1.89a1.372 1.372 0 01-1.465.97 1.54 1.54 0 01-1.184-.505 1.514 1.514 0 01-.377-1.224c-.06-.445.077-.893.376-1.23.299-.335.73-.526 1.182-.522.94 0 1.509.637 1.509 1.69v.23h-2.388v.038a.88.88 0 00.236.678.894.894 0 00.664.283.813.813 0 00.804-.407h.643zm-2.346-1.08h1.706a.801.801 0 00-.221-.616.819.819 0 00-.61-.252.858.858 0 00-.875.869zm5.175-1.367h1.524c.66 0 1.049.333 1.049.853a.721.721 0 01-.572.708v.053c.41.025.728.365.723.773 0 .585-.443.967-1.185.967h-1.54V7.59h.001zm.66.508v.869h.662c.403 0 .596-.154.596-.438 0-.261-.168-.43-.522-.43h-.735l-.001-.001zm0 1.355v.983h.792c.394 0 .605-.173.605-.49 0-.336-.239-.493-.689-.493h-.708z" fill="#fff"/></svg><svg fill="none" viewBox="0 0 30 17" id="arrow" xmlns="http://www.w3.org/2000/svg"><path d="M21.125 1L29 8.5m0 0L21.125 16M29 8.5H1" stroke="#fff" stroke-width="1.8" stroke-linecap="round" stroke-linejoin="round"/></svg><svg fill="none" viewBox="0 0 30 17" id="arrow-b" xmlns="http://www.w3.org/2000/svg"><path d="M21.125 1L29 8.5m0 0L21.125 16M29 8.5H1" stroke="#272727" stroke-width="1.8" stroke-linecap="round" stroke-linejoin="round"/></svg><svg viewBox="0 0 512.001 512.001" id="close" xmlns="http://www.w3.org/2000/svg"><path d="M284.286 256.002L506.143 34.144c7.811-7.811 7.811-20.475 0-28.285-7.811-7.81-20.475-7.811-28.285 0L256 227.717 34.143 5.859c-7.811-7.811-20.475-7.811-28.285 0-7.81 7.811-7.811 20.475 0 28.285l221.857 221.857L5.858 477.859c-7.811 7.811-7.811 20.475 0 28.285a19.938 19.938 0 0014.143 5.857 19.94 19.94 0 0014.143-5.857L256 284.287l221.857 221.857c3.905 3.905 9.024 5.857 14.143 5.857s10.237-1.952 14.143-5.857c7.811-7.811 7.811-20.475 0-28.285L284.286 256.002z" data-original="#000000" class="eactive-path" data-old_color="#000000" fill="#FFF"/></svg><svg fill="none" viewBox="0 0 35 35" id="fb" xmlns="http://www.w3.org/2000/svg"><path fill-rule="evenodd" clip-rule="evenodd" d="M17.5 0C7.835 0 0 7.835 0 17.5S7.835 35 17.5 35 35 27.165 35 17.5 27.165 0 17.5 0zm1.824 18.269v9.52h-3.94v-9.52h-1.967v-3.28h1.968v-1.97c0-2.677 1.111-4.269 4.268-4.269h2.629v3.281h-1.643c-1.23 0-1.31.459-1.31 1.315l-.005 1.642H22.3l-.348 3.28h-2.628z" fill="#fff"/></svg><svg viewBox="0 0 0 0" id="filter-map" xmlns="http://www.w3.org/2000/svg"/><svg fill="none" viewBox="0 0 24 22" id="heart" xmlns="http://www.w3.org/2000/svg"><path d="M12 20C-9.2 8.233 5.64-4.541 12 3.536 18.36-4.54 33.199 8.233 12 20z" stroke="#fff" stroke-width="1.8"/></svg><svg fill="none" viewBox="0 0 17 22" id="lock" xmlns="http://www.w3.org/2000/svg"><path d="M4.5 8H2a1 1 0 00-1 1v11a1 1 0 001 1h13a1 1 0 001-1V9a1 1 0 00-1-1h-2.5m-8 0V5a4 4 0 014-4v0a4 4 0 014 4v3m-8 0h8" stroke="#fff" stroke-width="1.8" stroke-linecap="round" stroke-linejoin="round"/></svg><svg fill="none" viewBox="0 0 258 53" id="logo" xmlns="http://www.w3.org/2000/svg"><path d="M35.468 37.738h.626v.39h-8.486v-.351h.586a1.49 1.49 0 001.134-.506c.313-.364.444-.753.391-1.168l-1.76-19.587-8.212 18.185c-.73 1.583-1.173 2.907-1.33 3.972h-.39L8.014 17.062l-1.682 19.04c-.052.416.078.805.391 1.169.313.337.678.506 1.095.506h.626v.35H.858v-.389h.626c.73 0 1.356-.22 1.877-.662.548-.441.873-1.038.978-1.791l2.933-24.96h.39l10.912 23.48 10.676-23.48h.352l3.011 24.96c.13 1.038.652 1.765 1.565 2.18.39.182.82.273 1.29.273zm10.516-21.961c2.008-1.039 4.21-1.558 6.61-1.558 2.424 0 4.64.52 6.648 1.558 2.007 1.012 3.598 2.453 4.77 4.322 1.2 1.869 1.8 3.985 1.8 6.347 0 2.362-.6 4.478-1.8 6.347-1.172 1.869-2.763 3.323-4.77 4.361-2.008 1.012-4.067 1.519-6.18 1.519-2.111 0-3.975-.299-5.592-.896-1.616-.597-3.024-1.428-4.223-2.492-1.174-1.064-2.112-2.362-2.816-3.894-.678-1.531-1.017-3.323-1.017-5.373 0-2.077.587-4.05 1.76-5.92 1.2-1.868 2.803-3.309 4.81-4.321zm-.743 18.651c1.981 2.051 4.432 3.077 7.352 3.077s5.371-1.026 7.353-3.077c1.981-2.076 2.972-4.737 2.972-7.982s-.991-5.893-2.972-7.944c-1.982-2.076-4.433-3.115-7.353-3.115s-5.37 1.039-7.352 3.115c-1.955 2.051-2.933 4.699-2.933 7.944s.978 5.906 2.933 7.982zm32.202-18.651c2.007-1.039 4.21-1.558 6.609-1.558 2.425 0 4.64.52 6.648 1.558 2.008 1.012 3.598 2.453 4.771 4.322 1.2 1.869 1.8 3.985 1.8 6.347 0 2.362-.6 4.478-1.8 6.347-1.173 1.869-2.763 3.323-4.77 4.361-2.008 1.012-4.068 1.519-6.18 1.519s-3.976-.299-5.592-.896c-1.617-.597-3.024-1.428-4.224-2.492-1.173-1.064-2.111-2.362-2.815-3.894-.679-1.531-1.018-3.323-1.018-5.373 0-2.077.587-4.05 1.76-5.92 1.2-1.868 2.803-3.309 4.81-4.321zM76.7 34.428c1.981 2.051 4.432 3.077 7.352 3.077s5.37-1.026 7.352-3.077c1.982-2.076 2.972-4.737 2.972-7.982s-.99-5.893-2.972-7.944c-1.981-2.076-4.432-3.115-7.352-3.115s-5.37 1.039-7.352 3.115c-1.956 2.051-2.933 4.699-2.933 7.944s.978 5.906 2.933 7.982zm51.916-19.274c-.574 0-1.069.194-1.486.584a1.859 1.859 0 00-.665 1.363v16.587c0 1.506.091 2.934.274 4.284l.078.7h-.352l-20.336-19.196v16.237c0 .571.209 1.052.626 1.441.417.39.925.584 1.525.584h.665v.39h-7.391v-.39h.664c.6 0 1.109-.195 1.526-.584.417-.39.625-.87.625-1.44V19.047c0-1.584-.091-2.999-.273-4.245l-.079-.623.431.04 20.296 19.04V17.1c-.052-.545-.286-.999-.704-1.362a2.103 2.103 0 00-1.486-.584h-.665v-.39h7.392v.39h-.665zm24.571-3.077h-2.503v23.208c0 .675.235 1.259.704 1.752.495.468 1.095.701 1.799.701h.469l.039.39h-8.564v-.39h.508c.678 0 1.252-.233 1.721-.7a2.401 2.401 0 00.782-1.714V13.713A2.401 2.401 0 00147.36 12a2.284 2.284 0 00-1.721-.74h-.508v-.39h10.559c2.372 0 4.236.662 5.592 1.986 1.356 1.298 2.034 2.998 2.034 5.101 0 2.077-.652 3.881-1.956 5.413-1.277 1.505-2.842 2.258-4.693 2.258.391.182.848.545 1.369 1.09.548.52 1.03 1.065 1.447 1.636 2.242 3.193 3.702 5.166 4.38 5.919.678.726 1.16 1.233 1.447 1.518.287.26.6.52.939.779.339.26.678.467 1.016.623a5.53 5.53 0 002.425.545v.39h-2.151c-1.121 0-2.164-.195-3.128-.585-.965-.415-1.695-.83-2.19-1.246a27.84 27.84 0 01-1.252-1.246c-.339-.415-1.303-1.765-2.894-4.05-1.59-2.284-2.516-3.582-2.776-3.893a14.776 14.776 0 00-.822-.974c-.834-.882-1.668-1.324-2.503-1.324v-.389c.209.026.483.039.822.039.339 0 .756-.013 1.251-.039 3.233-.078 5.267-1.428 6.101-4.05.156-.519.235-.999.235-1.44v-.896c-.053-1.74-.509-3.141-1.369-4.205-.861-1.065-2.021-1.636-3.481-1.714a58.237 58.237 0 00-2.346-.039zm18.751 25.661c.704 0 1.317-.208 1.838-.623.522-.415.782-.909.782-1.48V17.256c0-.57-.26-1.064-.782-1.48-.521-.415-1.147-.622-1.877-.622h-.508v-.39h8.838v.39h-.508c-.704 0-1.317.194-1.838.584-.496.39-.77.87-.822 1.44v18.496c.026.571.3 1.065.822 1.48.521.39 1.134.584 1.838.584h.508l.039.39h-8.877v-.39h.547zm37.775-22.584h-.313c-.573 0-1.134.194-1.681.584-.548.363-1.017.921-1.408 1.674-5.684 12.149-8.643 18.509-8.877 19.08-.444 1.09-.678 1.817-.704 2.18h-.352l-9.66-21.221c-.756-1.532-1.76-2.297-3.011-2.297h-.313v-.39h8.017v.39h-.313c-.495 0-.873.181-1.134.545-.235.337-.352.649-.352.934 0 .286.039.584.117.896l7.001 16.977 7.195-16.9c.131-.337.196-.648.196-.934 0-.311-.13-.636-.391-.973-.261-.364-.652-.545-1.173-.545h-.274v-.39h7.43v.39zm3.641 22.584c.626 0 1.147-.195 1.564-.584.444-.415.678-.909.704-1.48V17.178c0-.57-.221-1.05-.665-1.44-.443-.39-.977-.584-1.603-.584h-.547v-.39h11.419c1.069 0 2.007-.078 2.816-.233.808-.156 1.329-.286 1.564-.39v4.44l-.43-.04v-.584c0-.545-.183-1.012-.548-1.402-.365-.389-.834-.584-1.408-.584h-8.134v9.89h6.687c.522 0 .913-.155 1.174-.466.286-.312.43-.701.43-1.169v-.506h.43v5.452h-.43v-.507c0-.726-.274-1.22-.821-1.48a2.775 2.775 0 00-.665-.155h-6.805v9.89h6.14c1.199 0 2.203-.207 3.011-.623.834-.415 1.46-.908 1.877-1.48.444-.57.887-1.323 1.33-2.258h.391l-2.151 5.569h-15.877v-.39h.547zm28.905-21.767h-2.072v19.664c.026.805.391 1.415 1.095 1.83.339.182.717.273 1.134.273h.508l.039.39h-8.017v-.39h.548c.599 0 1.108-.195 1.525-.584.443-.415.665-.909.665-1.48V17.178c0-.57-.222-1.05-.665-1.44-.417-.39-.926-.584-1.525-.584h-.548v-.39h9.816c2.451 0 4.38.558 5.788 1.675 1.434 1.116 2.151 2.582 2.151 4.4 0 1.817-.574 3.335-1.721 4.556-1.147 1.22-2.607 1.92-4.38 2.102.834.364 1.838 1.376 3.011 3.037-.026 0 .418.572 1.33 1.714a301.895 301.895 0 002.229 2.687 26.526 26.526 0 001.408 1.44c.965.909 2.073 1.363 3.324 1.363v.39h-1.212c-2.06 0-3.676-.403-4.849-1.208a11.434 11.434 0 01-2.425-2.22c-.156-.207-.821-1.115-1.995-2.725a302.075 302.075 0 00-1.838-2.609c-1.407-1.739-2.724-2.609-3.949-2.609v-.389c3.05 0 4.888-.156 5.514-.467.86-.442 1.447-.909 1.76-1.402a6.324 6.324 0 00.977-3.427c0-1.583-.469-2.803-1.408-3.66-.938-.857-2.203-1.324-3.793-1.402a66.515 66.515 0 00-2.425-.039z" fill="#272727"/><path d="M97.274 26.124c-.36-10.682-9.929-12.497-14.409-12.322 1.797.558 10.385 2.094 11.355 12.322.776 8.183-7.246 12.02-11.355 12.916 5.127-.023 14.768-2.234 14.41-12.916z" fill="#EFC58B"/></svg><svg fill="none" viewBox="0 0 258 53" id="logo_footer" xmlns="http://www.w3.org/2000/svg"><path d="M35.468 37.738h.626v.39h-8.486v-.351h.586a1.49 1.49 0 001.134-.506c.313-.364.444-.753.391-1.168l-1.76-19.587-8.212 18.185c-.73 1.583-1.173 2.907-1.33 3.972h-.39L8.014 17.062l-1.682 19.04c-.052.416.078.805.391 1.169.313.337.678.506 1.095.506h.626v.35H.858v-.389h.626c.73 0 1.356-.22 1.877-.662.548-.441.873-1.038.978-1.791l2.933-24.96h.39l10.912 23.48 10.676-23.48h.352l3.011 24.96c.13 1.038.652 1.765 1.565 2.18.39.182.82.273 1.29.273zm10.516-21.961c2.008-1.039 4.21-1.558 6.61-1.558 2.424 0 4.64.52 6.648 1.558 2.007 1.012 3.598 2.453 4.77 4.322 1.2 1.869 1.8 3.985 1.8 6.347 0 2.362-.6 4.478-1.8 6.347-1.172 1.869-2.763 3.323-4.77 4.361-2.008 1.012-4.067 1.519-6.18 1.519-2.111 0-3.975-.299-5.592-.896-1.616-.597-3.024-1.428-4.223-2.492-1.174-1.064-2.112-2.362-2.816-3.894-.678-1.531-1.017-3.323-1.017-5.373 0-2.077.587-4.05 1.76-5.92 1.2-1.868 2.803-3.309 4.81-4.321zm-.743 18.651c1.981 2.051 4.432 3.077 7.352 3.077s5.371-1.026 7.353-3.077c1.981-2.076 2.972-4.737 2.972-7.982s-.991-5.893-2.972-7.944c-1.982-2.076-4.433-3.115-7.353-3.115s-5.37 1.039-7.352 3.115c-1.955 2.051-2.933 4.699-2.933 7.944s.978 5.906 2.933 7.982zm32.202-18.651c2.007-1.039 4.21-1.558 6.609-1.558 2.425 0 4.64.52 6.648 1.558 2.008 1.012 3.598 2.453 4.771 4.322 1.2 1.869 1.8 3.985 1.8 6.347 0 2.362-.6 4.478-1.8 6.347-1.173 1.869-2.763 3.323-4.77 4.361-2.008 1.012-4.068 1.519-6.18 1.519s-3.976-.299-5.592-.896c-1.617-.597-3.024-1.428-4.224-2.492-1.173-1.064-2.111-2.362-2.815-3.894-.679-1.531-1.018-3.323-1.018-5.373 0-2.077.587-4.05 1.76-5.92 1.2-1.868 2.803-3.309 4.81-4.321zM76.7 34.428c1.981 2.051 4.432 3.077 7.352 3.077s5.37-1.026 7.352-3.077c1.982-2.076 2.972-4.737 2.972-7.982s-.99-5.893-2.972-7.944c-1.981-2.076-4.432-3.115-7.352-3.115s-5.37 1.039-7.352 3.115c-1.956 2.051-2.933 4.699-2.933 7.944s.978 5.906 2.933 7.982zm51.916-19.274c-.574 0-1.069.194-1.486.584a1.859 1.859 0 00-.665 1.363v16.587c0 1.506.091 2.934.274 4.284l.078.7h-.352l-20.336-19.196v16.237c0 .571.209 1.052.626 1.441.417.39.925.584 1.525.584h.665v.39h-7.391v-.39h.664c.6 0 1.109-.195 1.526-.584.417-.39.625-.87.625-1.44V19.047c0-1.584-.091-2.999-.273-4.245l-.079-.623.431.04 20.296 19.04V17.1c-.052-.545-.286-.999-.704-1.362a2.103 2.103 0 00-1.486-.584h-.665v-.39h7.392v.39h-.665zm24.571-3.077h-2.503v23.208c0 .675.235 1.259.704 1.752.495.468 1.095.701 1.799.701h.469l.039.39h-8.564v-.39h.508c.678 0 1.252-.233 1.721-.7a2.401 2.401 0 00.782-1.714V13.713A2.401 2.401 0 00147.36 12a2.284 2.284 0 00-1.721-.74h-.508v-.39h10.559c2.372 0 4.236.662 5.592 1.986 1.356 1.298 2.034 2.998 2.034 5.101 0 2.077-.652 3.881-1.956 5.413-1.277 1.505-2.842 2.258-4.693 2.258.391.182.848.545 1.369 1.09.548.52 1.03 1.065 1.447 1.636 2.242 3.193 3.702 5.166 4.38 5.919.678.726 1.16 1.233 1.447 1.518.287.26.6.52.939.779.339.26.678.467 1.016.623a5.53 5.53 0 002.425.545v.39h-2.151c-1.121 0-2.164-.195-3.128-.585-.965-.415-1.695-.83-2.19-1.246a27.84 27.84 0 01-1.252-1.246c-.339-.415-1.303-1.765-2.894-4.05-1.59-2.284-2.516-3.582-2.776-3.893a14.776 14.776 0 00-.822-.974c-.834-.882-1.668-1.324-2.503-1.324v-.389c.209.026.483.039.822.039.339 0 .756-.013 1.251-.039 3.233-.078 5.267-1.428 6.101-4.05.156-.519.235-.999.235-1.44v-.896c-.053-1.74-.509-3.141-1.369-4.205-.861-1.065-2.021-1.636-3.481-1.714a58.237 58.237 0 00-2.346-.039zm18.751 25.661c.704 0 1.317-.208 1.838-.623.522-.415.782-.909.782-1.48V17.256c0-.57-.26-1.064-.782-1.48-.521-.415-1.147-.622-1.877-.622h-.508v-.39h8.838v.39h-.508c-.704 0-1.317.194-1.838.584-.496.39-.77.87-.822 1.44v18.496c.026.571.3 1.065.822 1.48.521.39 1.134.584 1.838.584h.508l.039.39h-8.877v-.39h.547zm37.775-22.584h-.313c-.573 0-1.134.194-1.681.584-.548.363-1.017.921-1.408 1.674-5.684 12.149-8.643 18.509-8.877 19.08-.444 1.09-.678 1.817-.704 2.18h-.352l-9.66-21.221c-.756-1.532-1.76-2.297-3.011-2.297h-.313v-.39h8.017v.39h-.313c-.495 0-.873.181-1.134.545-.235.337-.352.649-.352.934 0 .286.039.584.117.896l7.001 16.977 7.195-16.9c.131-.337.196-.648.196-.934 0-.311-.13-.636-.391-.973-.261-.364-.652-.545-1.173-.545h-.274v-.39h7.43v.39zm3.641 22.584c.626 0 1.147-.195 1.564-.584.444-.415.678-.909.704-1.48V17.178c0-.57-.221-1.05-.665-1.44-.443-.39-.977-.584-1.603-.584h-.547v-.39h11.419c1.069 0 2.007-.078 2.816-.233.808-.156 1.329-.286 1.564-.39v4.44l-.43-.04v-.584c0-.545-.183-1.012-.548-1.402-.365-.389-.834-.584-1.408-.584h-8.134v9.89h6.687c.522 0 .913-.155 1.174-.466.286-.312.43-.701.43-1.169v-.506h.43v5.452h-.43v-.507c0-.726-.274-1.22-.821-1.48a2.775 2.775 0 00-.665-.155h-6.805v9.89h6.14c1.199 0 2.203-.207 3.011-.623.834-.415 1.46-.908 1.877-1.48.444-.57.887-1.323 1.33-2.258h.391l-2.151 5.569h-15.877v-.39h.547zm28.905-21.767h-2.072v19.664c.026.805.391 1.415 1.095 1.83.339.182.717.273 1.134.273h.508l.039.39h-8.017v-.39h.548c.599 0 1.108-.195 1.525-.584.443-.415.665-.909.665-1.48V17.178c0-.57-.222-1.05-.665-1.44-.417-.39-.926-.584-1.525-.584h-.548v-.39h9.816c2.451 0 4.38.558 5.788 1.675 1.434 1.116 2.151 2.582 2.151 4.4 0 1.817-.574 3.335-1.721 4.556-1.147 1.22-2.607 1.92-4.38 2.102.834.364 1.838 1.376 3.011 3.037-.026 0 .418.572 1.33 1.714a301.895 301.895 0 002.229 2.687 26.526 26.526 0 001.408 1.44c.965.909 2.073 1.363 3.324 1.363v.39h-1.212c-2.06 0-3.676-.403-4.849-1.208a11.434 11.434 0 01-2.425-2.22c-.156-.207-.821-1.115-1.995-2.725a302.075 302.075 0 00-1.838-2.609c-1.407-1.739-2.724-2.609-3.949-2.609v-.389c3.05 0 4.888-.156 5.514-.467.86-.442 1.447-.909 1.76-1.402a6.324 6.324 0 00.977-3.427c0-1.583-.469-2.803-1.408-3.66-.938-.857-2.203-1.324-3.793-1.402a66.515 66.515 0 00-2.425-.039z" fill="#fff"/><path d="M97.274 26.124c-.36-10.682-9.929-12.497-14.409-12.322 1.797.558 10.385 2.094 11.355 12.322.776 8.183-7.246 12.02-11.355 12.916 5.127-.023 14.768-2.234 14.41-12.916z" fill="#EFC58B"/></svg><svg fill="none" viewBox="0 0 46 60" id="map" xmlns="http://www.w3.org/2000/svg"><path d="M23 0C10.82 0 .91 9.91.91 22.09c0 3.177.651 6.21 1.932 9.016C8.365 43.191 18.954 55.95 22.068 59.573a1.23 1.23 0 001.863 0c3.113-3.622 13.702-16.38 19.226-28.467 1.283-2.806 1.932-5.84 1.932-9.016C45.088 9.91 35.18 0 23 0zm0 33.563c-6.327 0-11.475-5.148-11.475-11.474 0-6.327 5.148-11.475 11.474-11.475 6.327 0 11.474 5.148 11.474 11.475S29.326 33.563 23 33.563z" fill="#fff"/></svg><svg fill="none" viewBox="0 0 53 31" id="slider-left" xmlns="http://www.w3.org/2000/svg"><path d="M15.344 1L1 15.5m0 0L15.344 30M1 15.5h51" stroke="#fff" stroke-width="1.8" stroke-linecap="round" stroke-linejoin="round"/></svg><svg fill="none" viewBox="0 0 53 31" id="slider-right" xmlns="http://www.w3.org/2000/svg"><path d="M37.656 1L52 15.5m0 0L37.656 30M52 15.5H1" stroke="#fff" stroke-width="1.8" stroke-linecap="round" stroke-linejoin="round"/></svg><svg fill="none" viewBox="0 0 15 22" id="user" xmlns="http://www.w3.org/2000/svg"><path d="M11.833 5.444c0 2.455-1.94 4.445-4.333 4.445-2.393 0-4.333-1.99-4.333-4.445C3.167 2.99 5.107 1 7.5 1c2.393 0 4.333 1.99 4.333 4.444zM1 15.444C1 12.376 3.425 9.89 6.417 9.89h2.166c2.992 0 5.417 2.487 5.417 5.555v4.445c0 .614-.485 1.111-1.083 1.111H2.083C1.485 21 1 20.503 1 19.889v-4.445z" stroke="#fff" stroke-width="1.8"/></svg></svg>